<?xml version="1.0" encoding="UTF-8"?>
<svg width="512" height="512" viewBox="0 0 512 512" fill="none" xmlns="http://www.w3.org/2000/svg">
    <defs>
    <linearGradient id="grad" x1="20" y1="10" x2="110" y2="120" gradientUnits="userSpaceOnUse">
      <stop stop-color="#6D5EFC"/>
      <stop offset="0.55" stop-color="#28C7F7"/>
      <stop offset="1" stop-color="#20C997"/>
    </linearGradient>

    <linearGradient id="grad2" x1="80" y1="20" x2="220" y2="260" gradientUnits="userSpaceOnUse">
      <stop stop-color="#6D5EFC"/>
      <stop offset="0.45" stop-color="#28C7F7"/>
      <stop offset="1" stop-color="#20C997"/>
    </linearGradient>

    <filter id="shadow" x="-30%" y="-30%" width="160%" height="160%">
      <feDropShadow dx="0" dy="14" stdDeviation="16" flood-color="#000" flood-opacity="0.25"/>
    </filter>
  </defs>
  <rect x="64" y="64" width="384" height="384" rx="96" fill="rgba(255,255,255,0.05)" stroke="rgba(255,255,255,0.25)" stroke-width="2"/>
  <path d="M190 260C190 200 236 152 296 152H350C386 152 416 182 416 216C416 250 386 280 350 280H302C273 280 250 303 250 332C250 361 273 384 302 384H320" stroke="url(#grad2)" stroke-width="28" stroke-linecap="round"/>  <rect x="206" y="288" width="88" height="62" rx="18" fill="rgba(10,16,30,0.18)" stroke="rgba(255,255,255,0.35)"/>  <path d="M236 318L268 299V337L236 318Z" fill="url(#grad)"/></svg>
